<svg width="24" height="24" viewBox="0 0 24 24" fill="none" xmlns="http://www.w3.org/2000/svg">
<path fill-rule="evenodd" clip-rule="evenodd" d="M11.99 2C6.47 2 2 6.48 2 12C2 17.52 6.47 22 11.99 22C17.52 22 22 17.52 22 12C22 6.48 17.52 2 11.99 2ZM12 20C7.58 20 4 16.42 4 12C4 7.58 7.58 4 12 4C16.42 4 20 7.58 20 12C20 16.42 16.42 20 12 20ZM11 7H12.5V12.25L17 14.92L16.25 16.15L11 13V7Z" fill="#363645" fill-opacity="0.5"/>
<path d="M12.5 7H13V6.5H12.5V7ZM11 7V6.5H10.5V7H11ZM12.5 12.25H12V12.5347L12.2449 12.68L12.5 12.25ZM17 14.92L17.4269 15.1803L17.6904 14.7482L17.2551 14.49L17 14.92ZM16.25 16.15L15.9928 16.5787L16.4184 16.8342L16.6769 16.4103L16.25 16.15ZM11 13H10.5V13.2831L10.7428 13.4287L11 13ZM2.5 12C2.5 6.75549 6.74679 2.5 11.99 2.5V1.5C6.19321 1.5 1.5 6.20451 1.5 12H2.5ZM11.99 21.5C6.74679 21.5 2.5 17.2445 2.5 12H1.5C1.5 17.7955 6.19321 22.5 11.99 22.5V21.5ZM21.5 12C21.5 17.2435 17.2442 21.5 11.99 21.5V22.5C17.7958 22.5 22.5 17.7965 22.5 12H21.5ZM11.99 2.5C17.2442 2.5 21.5 6.75647 21.5 12H22.5C22.5 6.20353 17.7958 1.5 11.99 1.5V2.5ZM3.5 12C3.5 16.6961 7.30386 20.5 12 20.5V19.5C7.85614 19.5 4.5 16.1439 4.5 12H3.5ZM12 3.5C7.30386 3.5 3.5 7.30386 3.5 12H4.5C4.5 7.85614 7.85614 4.5 12 4.5V3.5ZM20.5 12C20.5 7.30386 16.6961 3.5 12 3.5V4.5C16.1439 4.5 19.5 7.85614 19.5 12H20.5ZM12 20.5C16.6961 20.5 20.5 16.6961 20.5 12H19.5C19.5 16.1439 16.1439 19.5 12 19.5V20.5ZM12.5 6.5H11V7.5H12.5V6.5ZM13 12.25V7H12V12.25H13ZM17.2551 14.49L12.7551 11.82L12.2449 12.68L16.7449 15.35L17.2551 14.49ZM16.6769 16.4103L17.4269 15.1803L16.5731 14.6597L15.8231 15.8897L16.6769 16.4103ZM10.7428 13.4287L15.9928 16.5787L16.5072 15.7213L11.2572 12.5713L10.7428 13.4287ZM10.5 7V13H11.5V7H10.5Z" fill="#F1F2F5"/>
</svg>
