<svg width="24" height="24" viewBox="0 0 24 24" fill="none" xmlns="http://www.w3.org/2000/svg">
<path fill-rule="evenodd" clip-rule="evenodd" d="M2 12C2 6.48 6.48 2 12 2C17.52 2 22 6.48 22 12C22 17.52 17.52 22 12 22C6.48 22 2 17.52 2 12ZM13 16V18H11V16H13ZM12 20C7.59 20 4 16.41 4 12C4 7.59 7.59 4 12 4C16.41 4 20 7.59 20 12C20 16.41 16.41 20 12 20ZM8 10C8 7.79 9.79 6 12 6C14.21 6 16 7.79 16 10C16 11.2829 15.21 11.9733 14.4408 12.6455C13.711 13.2833 13 13.9046 13 15H11C11 13.1787 11.9421 12.4566 12.7704 11.8217C13.4202 11.3236 14 10.8792 14 10C14 8.9 13.1 8 12 8C10.9 8 10 8.9 10 10H8Z" fill="#363645" fill-opacity="0.6"/>
<path d="M13 18V18.5H13.5V18H13ZM13 16H13.5V15.5H13V16ZM11 18H10.5V18.5H11V18ZM11 16V15.5H10.5V16H11ZM8 10H7.5V10.5H8V10ZM14.4408 12.6455L14.1117 12.269L14.1117 12.269L14.4408 12.6455ZM13 15V15.5H13.5V15H13ZM11 15H10.5V15.5H11V15ZM12.7704 11.8217L13.0746 12.2185L12.7704 11.8217ZM10 10V10.5H10.5V10H10ZM12 1.5C6.20386 1.5 1.5 6.20386 1.5 12H2.5C2.5 6.75614 6.75614 2.5 12 2.5V1.5ZM22.5 12C22.5 6.20386 17.7961 1.5 12 1.5V2.5C17.2439 2.5 21.5 6.75614 21.5 12H22.5ZM12 22.5C17.7961 22.5 22.5 17.7961 22.5 12H21.5C21.5 17.2439 17.2439 21.5 12 21.5V22.5ZM1.5 12C1.5 17.7961 6.20386 22.5 12 22.5V21.5C6.75614 21.5 2.5 17.2439 2.5 12H1.5ZM13.5 18V16H12.5V18H13.5ZM11 18.5H13V17.5H11V18.5ZM10.5 16V18H11.5V16H10.5ZM13 15.5H11V16.5H13V15.5ZM3.5 12C3.5 16.6861 7.31386 20.5 12 20.5V19.5C7.86614 19.5 4.5 16.1339 4.5 12H3.5ZM12 3.5C7.31386 3.5 3.5 7.31386 3.5 12H4.5C4.5 7.86614 7.86614 4.5 12 4.5V3.5ZM20.5 12C20.5 7.31386 16.6861 3.5 12 3.5V4.5C16.1339 4.5 19.5 7.86614 19.5 12H20.5ZM12 20.5C16.6861 20.5 20.5 16.6861 20.5 12H19.5C19.5 16.1339 16.1339 19.5 12 19.5V20.5ZM12 5.5C9.51386 5.5 7.5 7.51386 7.5 10H8.5C8.5 8.06614 10.0661 6.5 12 6.5V5.5ZM16.5 10C16.5 7.51386 14.4861 5.5 12 5.5V6.5C13.9339 6.5 15.5 8.06614 15.5 10H16.5ZM14.7698 13.022C15.5238 12.3631 16.5 11.5353 16.5 10H15.5C15.5 11.0305 14.8962 11.5835 14.1117 12.269L14.7698 13.022ZM13.5 15C13.5 14.1621 14.0151 13.6815 14.7698 13.022L14.1117 12.269C13.4069 12.885 12.5 13.6471 12.5 15H13.5ZM11 15.5H13V14.5H11V15.5ZM12.4663 11.4248C12.0591 11.7369 11.5541 12.1197 11.1641 12.6805C10.7631 13.257 10.5 13.9938 10.5 15H11.5C11.5 14.1849 11.7079 13.65 11.9851 13.2514C12.2732 12.8371 12.6534 12.5414 13.0746 12.2185L12.4663 11.4248ZM13.5 10C13.5 10.5996 13.1463 10.9036 12.4663 11.4248L13.0746 12.2185C13.6941 11.7437 14.5 11.1588 14.5 10H13.5ZM12 8.5C12.8239 8.5 13.5 9.17614 13.5 10H14.5C14.5 8.62386 13.3761 7.5 12 7.5V8.5ZM10.5 10C10.5 9.17614 11.1761 8.5 12 8.5V7.5C10.6239 7.5 9.5 8.62386 9.5 10H10.5ZM8 10.5H10V9.5H8V10.5Z" fill="#FEFEFE"/>
</svg>
