<svg width="60" height="37" viewBox="0 0 60 37" fill="none" xmlns="http://www.w3.org/2000/svg">
<g clip-path="url(#clip0)">
<path d="M11.4618 14.14C15.1886 14.14 18.2097 11.098 18.2097 7.34551C18.2097 3.59302 15.1886 0.551025 11.4618 0.551025C7.73502 0.551025 4.71387 3.59302 4.71387 7.34551C4.71387 11.098 7.73502 14.14 11.4618 14.14Z" fill="url(#paint0_linear)"/>
<path fill-rule="evenodd" clip-rule="evenodd" d="M10.2969 20.5575V7.88989H12.6256V20.5575H10.2969Z" fill="white"/>
<path d="M0.124512 7.88989V20.5642H2.45328V15.0468H7.79575V13.1158H2.45328V9.81069H7.79575V7.88989H0.124512Z" fill="white"/>
<path fill-rule="evenodd" clip-rule="evenodd" d="M34.059 17.3209H29.4004V15.3899H34.059V17.3209Z" fill="white"/>
<path fill-rule="evenodd" clip-rule="evenodd" d="M51.9671 7.88989L46.792 20.5642H49.1617L51.1475 15.7009L53.2288 10.6033L57.5739 20.5642H59.9677L54.4391 7.88989H51.9671Z" fill="white"/>
<path d="M50.4712 17.3556H56.1739L55.452 15.7004H51.1469L50.4712 17.3556Z" fill="white"/>
<path fill-rule="evenodd" clip-rule="evenodd" d="M38.5475 7.90308V15.1884V20.5609H36.2188V7.90308H38.5475Z" fill="white"/>
<path d="M46.2359 20.1363C46.05 19.8014 45.7928 19.3389 45.508 18.8293C45.309 18.4728 45.1024 18.0803 44.8972 17.6902C44.5168 16.9673 44.1408 16.2526 43.8248 15.7917C43.4805 15.2898 43.0808 14.9491 42.6748 14.6633C42.0846 14.9934 41.4187 15.1879 40.749 15.1879H39.498C40.0989 15.2083 40.3676 15.3868 40.6161 15.5695C40.9317 15.8015 41.3016 16.1595 41.8015 17.0164C42.1059 17.5384 42.3934 18.0564 42.7339 18.6704C42.8791 18.9319 43.0339 19.2109 43.2038 19.5149C43.4609 19.997 43.6915 20.3248 43.8867 20.5672L46.4694 20.5571C46.4175 20.4633 46.3289 20.3037 46.2359 20.1363Z" fill="white"/>
<path d="M36.2188 7.90374H38.5475V9.95571H40.7496C41.6196 9.95571 42.2048 10.4299 42.2048 11.5395C42.2048 12.4432 41.6196 13.1232 40.7496 13.1232H38.5475V15.189H39.4986H40.7496C41.4193 15.189 42.0852 14.9946 42.6753 14.6645C43.8516 14.0065 44.7261 12.8094 44.7261 11.5395C44.7261 9.10974 42.7544 7.88989 40.7496 7.88989H36.2188V7.90374Z" fill="white"/>
<path d="M24.9397 7.88989V16.6226L17.6608 8.19129L17.4007 7.88993H15.332V20.5576H17.6608V11.7654L24.9397 20.1966L25.2514 20.5576H27.2685V19.3199V7.88989H24.9397Z" fill="white"/>
<path d="M1.7535 28.382L1.76775 28.3972V25.2878H2.23061V28.382H3.39674V25.2878H3.87404V28.8397H0.124512V25.2878H0.599436V28.382H1.7535Z" fill="white"/>
<path d="M5.1377 25.2878H5.61261V26.732C5.70285 26.732 5.78279 26.7243 5.85245 26.7091C5.9237 26.6921 5.98781 26.6608 6.04479 26.615C6.10337 26.5692 6.15719 26.5056 6.20627 26.4243C6.25534 26.3412 6.30442 26.2336 6.35349 26.1014C6.41207 25.9437 6.47223 25.8132 6.53397 25.7099C6.59728 25.6048 6.66615 25.5208 6.74056 25.4582C6.81654 25.3954 6.90045 25.3514 6.99227 25.3259C7.08408 25.3005 7.18857 25.2878 7.30571 25.2878H7.34846V25.7455C7.24082 25.7455 7.18382 25.7565 7.11575 25.7785C7.04767 25.7989 6.99068 25.8328 6.94478 25.8803C6.89886 25.9259 6.85928 25.9862 6.82604 26.0607C6.79438 26.1336 6.76113 26.2218 6.72631 26.3251C6.70572 26.3878 6.67882 26.4514 6.64557 26.5158C6.61233 26.5803 6.57512 26.6404 6.53397 26.6964C6.49439 26.7523 6.45164 26.8023 6.40574 26.8463C6.36141 26.8905 6.3163 26.9234 6.27038 26.9455C6.35271 26.9862 6.42315 27.0277 6.48172 27.07C6.54189 27.1124 6.59728 27.1641 6.64794 27.2252C6.70019 27.2845 6.75164 27.3565 6.8023 27.4414C6.85454 27.526 6.9139 27.6312 6.98039 27.7565L7.56455 28.8397H7.02313L6.50785 27.8811C6.42711 27.7303 6.35428 27.6074 6.28938 27.5125C6.22448 27.4175 6.15878 27.343 6.09228 27.2888C6.02738 27.2345 5.95693 27.1972 5.88094 27.1768C5.80496 27.1565 5.71552 27.1463 5.61261 27.1463V28.8397H5.1377V25.2878Z" fill="white"/>
<path d="M8.41797 27.0639C8.41797 26.8182 8.45993 26.5851 8.54383 26.3647C8.62931 26.1444 8.74963 25.9512 8.90478 25.7851C9.05991 25.6172 9.24672 25.4851 9.46517 25.3884C9.68523 25.2901 9.92982 25.241 10.1989 25.241C10.4728 25.241 10.7198 25.2901 10.9398 25.3884C11.1599 25.4851 11.3467 25.6164 11.5002 25.7825C11.6554 25.9486 11.7741 26.1418 11.8564 26.3622C11.9403 26.5825 11.9823 26.8164 11.9823 27.0639C11.9823 27.3029 11.9411 27.5326 11.8588 27.753C11.778 27.9716 11.6609 28.1648 11.5073 28.3326C11.3538 28.5004 11.1654 28.6343 10.9422 28.7343C10.7206 28.8343 10.4696 28.8843 10.1894 28.8843C10.009 28.8843 9.83958 28.8623 9.68127 28.8182C9.52297 28.7724 9.37811 28.709 9.24672 28.6276C9.1169 28.5462 9.00054 28.4495 8.89765 28.3377C8.79475 28.2241 8.70768 28.1004 8.63643 27.9665C8.5652 27.8309 8.51059 27.6869 8.47259 27.5343C8.43617 27.3818 8.41797 27.225 8.41797 27.0639ZM8.90952 27.0639C8.90952 27.2571 8.94197 27.4368 9.00687 27.6029C9.07179 27.7673 9.16123 27.9106 9.27522 28.0326C9.39078 28.153 9.52691 28.247 9.68364 28.3148C9.84195 28.3826 10.0137 28.4166 10.1989 28.4166C10.3842 28.4166 10.5559 28.3826 10.7142 28.3148C10.8725 28.247 11.0087 28.153 11.1227 28.0326C11.2382 27.9106 11.3285 27.7673 11.3934 27.6029C11.4583 27.4368 11.4907 27.2571 11.4907 27.0639C11.4907 26.8673 11.4583 26.6868 11.3934 26.5223C11.3285 26.3563 11.2382 26.213 11.1227 26.0927C11.0087 25.9723 10.8725 25.8782 10.7142 25.8105C10.5559 25.7426 10.3842 25.7088 10.1989 25.7088C10.0137 25.7088 9.84195 25.7426 9.68364 25.8105C9.52691 25.8782 9.39078 25.9723 9.27522 26.0927C9.16123 26.213 9.07179 26.3563 9.00687 26.5223C8.94197 26.6868 8.90952 26.8673 8.90952 27.0639Z" fill="white"/>
<path d="M14.4978 25.2673L15.9821 28.8396H15.4952L14.3245 25.9224L13.2251 28.8396H12.7383L14.163 25.2673H14.4978Z" fill="white"/>
<path d="M18.2762 25.2673L19.7603 28.8396H19.2735L18.8318 27.792H17.4213L17.0033 28.8396H16.5166L17.9414 25.2673H18.2762ZM18.1028 25.9809L17.6065 27.3344H18.6372L18.1028 25.9809Z" fill="white"/>
<path d="M22.5493 28.8397V25.2878H24.6626V25.7455H23.0241V26.7091H23.6962C23.8719 26.7091 24.0326 26.7336 24.1782 26.7827C24.3238 26.8302 24.4489 26.8997 24.5534 26.9913C24.6595 27.0827 24.7418 27.1946 24.8004 27.3269C24.8589 27.4592 24.8882 27.6091 24.8882 27.7769C24.8882 27.943 24.8589 28.0921 24.8004 28.2244C24.7418 28.3549 24.6595 28.4659 24.5534 28.5575C24.4489 28.6489 24.3238 28.7193 24.1782 28.7685C24.0326 28.816 23.8719 28.8397 23.6962 28.8397H22.5493ZM23.0241 27.1692V28.382H23.7223C23.8204 28.382 23.9092 28.3659 23.9882 28.3336C24.0674 28.3015 24.1347 28.2583 24.1901 28.204C24.2455 28.1481 24.2882 28.0837 24.3184 28.0109C24.3484 27.9363 24.3634 27.8583 24.3634 27.7769C24.3634 27.5819 24.3018 27.432 24.1782 27.3269C24.0563 27.2218 23.8719 27.1692 23.6249 27.1692H23.0241Z" fill="white"/>
<path d="M27.8197 25.2878V25.7455H26.4139V26.8183H27.6958V27.2786H26.4139V28.382H27.8647V28.8397H25.939V25.2878H27.8197Z" fill="white"/>
<path d="M29.1574 27.2673V26.8123H29.6915C29.785 26.8123 29.8704 26.7953 29.948 26.7614C30.0271 26.7274 30.0944 26.6834 30.1497 26.6291C30.2067 26.5732 30.2511 26.5113 30.2828 26.4436C30.3144 26.3741 30.3303 26.3046 30.3303 26.235C30.3303 26.1452 30.3136 26.0681 30.2804 26.0037C30.2471 25.9393 30.2013 25.8868 30.1426 25.8461C30.0856 25.8037 30.0184 25.7732 29.9408 25.7545C29.8633 25.7342 29.7802 25.724 29.6915 25.724C29.6471 25.724 29.591 25.7283 29.5229 25.7367C29.4565 25.7436 29.3844 25.7554 29.3067 25.7723C29.2292 25.7892 29.1493 25.8121 29.067 25.841C28.9862 25.8698 28.9095 25.9054 28.8366 25.9477V25.4749C28.9078 25.4393 28.9878 25.407 29.0765 25.3782C29.1667 25.3494 29.2577 25.3248 29.3496 25.3046C29.4414 25.2841 29.5292 25.269 29.6132 25.2588C29.6987 25.2469 29.7722 25.241 29.834 25.241C29.9622 25.241 30.0848 25.2579 30.2021 25.2919C30.3192 25.3257 30.4221 25.38 30.5107 25.4545C30.601 25.5274 30.6722 25.6223 30.7244 25.7393C30.7782 25.8563 30.8052 25.9986 30.8052 26.1665C30.8052 26.2749 30.7885 26.3757 30.7554 26.469C30.7221 26.5622 30.6777 26.6452 30.6224 26.7182C30.5685 26.791 30.506 26.8538 30.4347 26.9063C30.3634 26.9571 30.2899 26.9953 30.2139 27.0207C30.2882 27.0461 30.3619 27.0826 30.4347 27.1301C30.5092 27.1757 30.5756 27.2342 30.6343 27.3055C30.6928 27.3749 30.7403 27.4563 30.7767 27.5495C30.813 27.6428 30.8313 27.7479 30.8313 27.8648C30.8313 28.036 30.7988 28.1861 30.734 28.3148C30.6706 28.4419 30.5859 28.5479 30.4799 28.6327C30.3739 28.7174 30.2519 28.781 30.1141 28.8233C29.978 28.864 29.8371 28.8843 29.6915 28.8843C29.6345 28.8843 29.5673 28.8801 29.4896 28.8716C29.4137 28.8648 29.3345 28.8538 29.2522 28.8386C29.1714 28.8217 29.0915 28.8012 29.0124 28.7775C28.9348 28.7538 28.8667 28.7258 28.8081 28.6937V28.1419C28.9363 28.2335 29.0685 28.2996 29.2047 28.3403C29.3408 28.381 29.4707 28.4012 29.5941 28.4012C29.6765 28.4012 29.7619 28.3937 29.8506 28.3783C29.9408 28.3632 30.0232 28.3352 30.0976 28.2945C30.1719 28.2521 30.2329 28.1945 30.2804 28.1217C30.3295 28.0487 30.354 27.9546 30.354 27.8393C30.354 27.7681 30.3406 27.6988 30.3136 27.6309C30.2867 27.5614 30.2424 27.5004 30.1807 27.4479C30.1189 27.3937 30.0374 27.3503 29.936 27.3182C29.8348 27.2843 29.7097 27.2673 29.5608 27.2673H29.1574Z" fill="white"/>
<path d="M31.8008 27.0639C31.8008 26.8182 31.8427 26.5851 31.9265 26.3647C32.0122 26.1444 32.1324 25.9512 32.2875 25.7851C32.4427 25.6172 32.6295 25.4851 32.8479 25.3884C33.068 25.2901 33.3126 25.241 33.5817 25.241C33.8556 25.241 34.1026 25.2901 34.3226 25.3884C34.5427 25.4851 34.7294 25.6164 34.883 25.7825C35.0382 25.9486 35.1568 26.1418 35.2391 26.3622C35.3231 26.5825 35.365 26.8164 35.365 27.0639C35.365 27.3029 35.3239 27.5326 35.2416 27.753C35.1608 27.9716 35.0437 28.1648 34.8901 28.3326C34.7365 28.5004 34.5482 28.6343 34.325 28.7343C34.1034 28.8343 33.8524 28.8843 33.5722 28.8843C33.3917 28.8843 33.2223 28.8623 33.0641 28.8182C32.9057 28.7724 32.7609 28.709 32.6295 28.6276C32.4997 28.5462 32.3834 28.4495 32.2804 28.3377C32.1775 28.2241 32.0905 28.1004 32.0193 27.9665C31.948 27.8309 31.8934 27.6869 31.8553 27.5343C31.819 27.3818 31.8008 27.225 31.8008 27.0639ZM32.2923 27.0639C32.2923 27.2571 32.3248 27.4368 32.3897 27.6029C32.4546 27.7673 32.5441 27.9106 32.658 28.0326C32.7735 28.153 32.9097 28.247 33.0664 28.3148C33.2248 28.3826 33.3965 28.4166 33.5817 28.4166C33.7669 28.4166 33.9387 28.3826 34.0969 28.3148C34.2553 28.247 34.3915 28.153 34.5054 28.0326C34.6211 27.9106 34.7112 27.7673 34.7761 27.6029C34.8411 27.4368 34.8735 27.2571 34.8735 27.0639C34.8735 26.8673 34.8411 26.6868 34.7761 26.5223C34.7112 26.3563 34.6211 26.213 34.5054 26.0927C34.3915 25.9723 34.2553 25.8782 34.0969 25.8105C33.9387 25.7426 33.7669 25.7088 33.5817 25.7088C33.3965 25.7088 33.2248 25.7426 33.0664 25.8105C32.9097 25.8782 32.7735 25.9723 32.658 26.0927C32.5441 26.213 32.4546 26.3563 32.3897 26.5223C32.3248 26.6868 32.2923 26.8673 32.2923 27.0639Z" fill="white"/>
<path d="M39.2955 25.2878V28.8397H38.8206V25.8127H36.9613V28.8397H36.4863V25.2878H39.2955Z" fill="white"/>
<path d="M47.1671 28.5742C47.0864 28.6199 47.0418 28.6623 46.9546 28.7012C46.8675 28.7386 46.7749 28.7708 46.6768 28.7979C46.5802 28.825 46.4757 28.8462 46.3634 28.8615C46.2526 28.8767 46.133 28.8843 46.0048 28.8843C45.7974 28.8843 45.609 28.8581 45.4397 28.8055C45.2702 28.753 45.119 28.6818 44.9861 28.592C44.8546 28.5021 44.74 28.3979 44.6418 28.2792C44.5452 28.1606 44.4652 28.036 44.4019 27.9055C44.3386 27.7732 44.2911 27.6393 44.2594 27.5037C44.2294 27.3681 44.2144 27.2385 44.2144 27.1148C44.2144 26.935 44.2349 26.7639 44.2761 26.6012C44.3172 26.4368 44.3759 26.2859 44.4518 26.1487C44.5278 26.0097 44.6196 25.8841 44.7272 25.7723C44.8364 25.6604 44.9583 25.5655 45.093 25.4876C45.2275 25.4079 45.3739 25.3469 45.5323 25.3046C45.6905 25.2622 45.8575 25.241 46.0333 25.241C46.1187 25.241 46.205 25.2469 46.2922 25.2588C46.3792 25.269 46.4686 25.2868 46.5604 25.3121C46.6538 25.3359 46.7504 25.3663 46.8501 25.4037C46.9515 25.4393 47.0192 25.4825 47.1315 25.5334V26.08C47.0286 26.0156 46.9681 25.9604 46.8715 25.9148C46.7765 25.8673 46.6823 25.8283 46.589 25.7978C46.4971 25.7673 46.4045 25.7452 46.3111 25.7317C46.2193 25.7164 46.125 25.7088 46.0286 25.7088C45.8386 25.7088 45.6629 25.7436 45.5013 25.813C45.3398 25.8808 45.1998 25.9749 45.0811 26.0952C44.9639 26.2156 44.8722 26.3588 44.8056 26.525C44.7392 26.691 44.7059 26.8724 44.7059 27.069C44.7059 27.2673 44.7383 27.4495 44.8033 27.6156C44.8682 27.78 44.9592 27.9215 45.0763 28.0403C45.195 28.1589 45.3367 28.2513 45.5013 28.3174C45.666 28.3834 45.8481 28.4166 46.0475 28.4166C46.2375 28.4166 46.4307 28.3826 46.627 28.3148C46.8233 28.247 46.9771 28.147 47.1671 28.0148V28.5742Z" fill="white"/>
<path d="M51.1349 25.2878V28.8397H50.6599V27.3542H48.8006V28.8397H48.3257V25.2878H48.8006V26.8019H50.6599V25.2878H51.1349Z" fill="white"/>
<path d="M55.6216 25.2878V28.8397H55.1466V25.2878H55.6216ZM53.3631 26.7827C53.5546 26.7827 53.7216 26.8107 53.8642 26.8667C54.0066 26.9226 54.1246 26.998 54.2179 27.0929C54.3129 27.1862 54.3833 27.2956 54.4292 27.4209C54.4768 27.5463 54.5005 27.6794 54.5005 27.8201C54.5005 27.9608 54.4759 28.0931 54.4269 28.2168C54.3779 28.3405 54.3058 28.4489 54.2107 28.5422C54.1158 28.6338 53.9979 28.7066 53.857 28.7608C53.7177 28.8134 53.5577 28.8397 53.3773 28.8397H52.4087V25.2878H52.8836V26.7827H53.3631ZM52.8836 27.2404V28.382H53.4391C53.5483 28.382 53.6394 28.3659 53.7121 28.3336C53.785 28.3015 53.8428 28.26 53.8855 28.2091C53.9298 28.1565 53.9614 28.098 53.9805 28.0336C53.9995 27.9692 54.009 27.9048 54.009 27.8404C54.009 27.7523 53.9955 27.6718 53.9686 27.5989C53.9432 27.5244 53.9061 27.4608 53.857 27.4083C53.8079 27.3557 53.7477 27.315 53.6765 27.2862C53.6069 27.2557 53.5277 27.2404 53.4391 27.2404H52.8836Z" fill="white"/>
<path d="M59.875 25.2878L58.5524 27.0015L59.9676 28.8397H59.3929L58.265 27.3089L57.1228 28.8397H56.5435L57.9729 27.0015L56.6455 25.2878H57.225L58.265 26.7007L59.3003 25.2878H59.875Z" fill="white"/>
<path d="M2.45876 33.1172L0.352475 35.8274H0.124512V32.2297H0.599436V34.9656L2.70097 32.2297H2.93368V35.7816H2.45876V33.1172Z" fill="white"/>
<path d="M7.0162 32.2297V35.7816H6.54128V34.2826H4.68195V35.7816H4.20703V32.2297H4.68195V33.727H6.54128V32.2297H7.0162Z" fill="white"/>
<path d="M8.28955 35.7816V32.2297H9.22493C9.40382 32.2297 9.55739 32.2561 9.68562 32.3086C9.81384 32.3612 9.91911 32.4297 10.0014 32.5146C10.0853 32.5993 10.1471 32.6968 10.1867 32.8068C10.2262 32.9154 10.246 33.0256 10.246 33.1375C10.246 33.3221 10.2057 33.4765 10.1249 33.6002C10.0442 33.7221 9.94228 33.8213 9.76656 33.8976V33.9078C9.89004 33.9332 9.96517 33.973 10.0633 34.0273C10.1631 34.0816 10.247 34.1485 10.315 34.2282C10.3847 34.3078 10.4377 34.3986 10.4741 34.5002C10.5105 34.6019 10.5287 34.7129 10.5287 34.8333C10.5287 34.9417 10.5082 35.0528 10.467 35.1663C10.4274 35.2781 10.3625 35.3799 10.2723 35.4714C10.182 35.563 10.0641 35.6376 9.91847 35.6951C9.7744 35.7528 9.59869 35.7816 9.3913 35.7816H8.28955ZM8.76447 32.6874V33.7501H9.08029C9.31933 33.7501 9.46952 33.7044 9.58351 33.6129C9.69748 33.5197 9.75448 33.3764 9.75448 33.1833C9.75448 33.117 9.74498 33.0544 9.72599 32.9951C9.70699 32.934 9.67454 32.8815 9.62862 32.8375C9.5843 32.7917 9.52493 32.7553 9.45052 32.7281C9.3777 32.7009 9.28667 32.6874 9.17744 32.6874H8.76447ZM8.76447 34.2104V35.3239H9.32718C9.46808 35.3239 9.58365 35.307 9.67388 35.2732C9.7657 35.2393 9.83852 35.1959 9.89235 35.1434C9.94617 35.0892 9.98337 35.029 10.0039 34.963C10.0261 34.8951 10.0372 34.8282 10.0372 34.762C10.0372 34.6808 10.0222 34.607 9.99208 34.5409C9.96358 34.473 9.91847 34.4146 9.85673 34.3655C9.79656 34.3164 9.72058 34.2781 9.62877 34.251C9.53695 34.2239 9.42851 34.2104 9.30344 34.2104H8.76447Z" fill="white"/>
<path d="M13.4456 32.2297V32.6874H12.0399V33.7604H13.2816V34.2205H12.0399V35.3239H13.4907V35.7816H11.5649V32.2297H13.4456Z" fill="white"/>
<path d="M17.3905 35.5176C17.3097 35.5634 17.2258 35.6057 17.1387 35.6447C17.0517 35.682 16.9591 35.7143 16.8609 35.7413C16.7643 35.7685 16.6599 35.7896 16.5475 35.8049C16.4367 35.8202 16.3172 35.8278 16.189 35.8278C15.9816 35.8278 15.7931 35.8014 15.6238 35.7489C15.4543 35.6965 15.3032 35.6252 15.1702 35.5354C15.0388 35.4456 14.9241 35.3413 14.8258 35.2227C14.7293 35.1041 14.6494 34.9794 14.5861 34.8489C14.5227 34.7167 14.4753 34.5828 14.4435 34.4472C14.4135 34.3116 14.3984 34.182 14.3984 34.0583C14.3984 33.8785 14.419 33.7074 14.4602 33.5446C14.5013 33.3802 14.5599 33.2293 14.636 33.0921C14.7119 32.953 14.8038 32.8276 14.9113 32.7158C15.0206 32.6039 15.1425 32.509 15.2771 32.4309C15.4116 32.3514 15.558 32.2903 15.7164 32.2479C15.8747 32.2056 16.0417 32.1843 16.2175 32.1843C16.303 32.1843 16.3891 32.1903 16.4762 32.2021C16.5634 32.2123 16.6528 32.2301 16.7446 32.2556C16.838 32.2794 16.9346 32.3098 17.0343 32.3471C17.1356 32.3827 17.2424 32.426 17.3549 32.4767V33.0234C17.252 32.9589 17.1523 32.9039 17.0557 32.8581C16.9606 32.8107 16.8665 32.7716 16.7731 32.7412C16.6813 32.7107 16.5887 32.6886 16.4953 32.6751C16.4034 32.6598 16.3093 32.6522 16.2127 32.6522C16.0227 32.6522 15.8469 32.6869 15.6856 32.7565C15.5241 32.8242 15.3839 32.9183 15.2652 33.0387C15.148 33.1589 15.0562 33.3023 14.9897 33.4683C14.9232 33.6344 14.8899 33.8158 14.8899 34.0125C14.8899 34.2108 14.9224 34.393 14.9873 34.5591C15.0523 34.7235 15.1432 34.865 15.2605 34.9836C15.3791 35.1023 15.5209 35.1947 15.6856 35.2607C15.8501 35.3269 16.0321 35.3599 16.2317 35.3599C16.4216 35.3599 16.6147 35.326 16.811 35.2583C17.0073 35.1904 17.2005 35.0904 17.3905 34.9583V35.5176Z" fill="white"/>
<path d="M20.9981 32.2297V32.6402H19.8512V35.7816H19.3739V32.6402H18.2271V32.2297H20.9981Z" fill="white"/>
<path d="M24.3186 33.1333L22.2123 35.8274H21.9844V32.2297H22.4593V34.9981L24.5608 32.2297H24.7936V35.7816H24.3186V33.1333Z" fill="white"/>
<path d="M28.8761 32.2297V35.3489H29.3154V36.4325H28.8381V35.7816H26.0669V32.2297H26.5418V35.3489H28.4011V32.2297H28.8761Z" fill="white"/>
<path d="M32.574 33.1292L30.4677 35.8274H30.2397V32.2297H30.7147V34.9735L32.8162 32.2297H33.0489V35.7816H32.574V33.1292Z" fill="white"/>
<path d="M36.657 33.1135L34.5507 35.8271H34.3228V32.2295H34.7977V34.9775L36.8992 32.2295H37.1319V35.7813H36.657V33.1135ZM35.3533 31.3274C35.4008 31.5426 35.5251 31.6117 35.7262 31.6117C35.8211 31.6117 35.8963 31.5863 35.9518 31.5354C36.0071 31.4828 36.0476 31.4393 36.0729 31.3274H36.4029C36.3666 31.546 36.2897 31.6744 36.1726 31.7896C36.057 31.9033 35.9066 31.9599 35.7214 31.9599C35.5347 31.9599 35.3811 31.9033 35.2607 31.7896C35.1421 31.6744 35.0644 31.546 35.0281 31.3274H35.3533Z" fill="white"/>
<path d="M41.9632 25.2673L43.4473 28.8396H42.9605L42.5188 27.792H41.1083L40.6903 28.8396H40.2036L41.6283 25.2673H41.9632ZM41.7898 25.9809L41.2935 27.3344H42.3242L41.7898 25.9809Z" fill="white"/>
</g>
<defs>
<linearGradient id="paint0_linear" x1="14.681" y1="2.12207" x2="8.34872" y2="12.2541" gradientUnits="userSpaceOnUse">
<stop stop-color="#84C663"/>
<stop offset="0.8" stop-color="#4DB56D"/>
<stop offset="0.86" stop-color="#44B270"/>
<stop offset="0.96" stop-color="#2CA978"/>
<stop offset="1" stop-color="#22A57B"/>
</linearGradient>
<clipPath id="clip0">
<rect width="60" height="36" fill="white" transform="translate(0 0.5)"/>
</clipPath>
</defs>
</svg>
