<svg width="48" height="49" viewBox="0 0 48 49" fill="none" xmlns="http://www.w3.org/2000/svg">
<mask id="path-1-inside-1" fill="white">
<path fill-rule="evenodd" clip-rule="evenodd" d="M24 8.5C19.58 8.5 16 12.08 16 16.5C16 20.92 19.58 24.5 24 24.5C28.42 24.5 32 20.92 32 16.5C32 12.08 28.42 8.5 24 8.5ZM28 16.5C28 14.3 26.2 12.5 24 12.5C21.8 12.5 20 14.3 20 16.5C20 18.7 21.8 20.5 24 20.5C26.2 20.5 28 18.7 28 16.5ZM36 34.5C35.6 33.08 29.4 30.5 24 30.5C18.6 30.5 12.4 33.08 12 34.52V36.5H36V34.5ZM8 34.5C8 29.18 18.66 26.5 24 26.5C29.34 26.5 40 29.18 40 34.5V40.5H8V34.5Z"/>
</mask>
<path fill-rule="evenodd" clip-rule="evenodd" d="M24 8.5C19.58 8.5 16 12.08 16 16.5C16 20.92 19.58 24.5 24 24.5C28.42 24.5 32 20.92 32 16.5C32 12.08 28.42 8.5 24 8.5ZM28 16.5C28 14.3 26.2 12.5 24 12.5C21.8 12.5 20 14.3 20 16.5C20 18.7 21.8 20.5 24 20.5C26.2 20.5 28 18.7 28 16.5ZM36 34.5C35.6 33.08 29.4 30.5 24 30.5C18.6 30.5 12.4 33.08 12 34.52V36.5H36V34.5ZM8 34.5C8 29.18 18.66 26.5 24 26.5C29.34 26.5 40 29.18 40 34.5V40.5H8V34.5Z" fill="white"/>
<path d="M36 34.5H37.5V34.2928L37.4438 34.0933L36 34.5ZM12 34.52L10.5547 34.1185L10.5 34.3155V34.52H12ZM12 36.5H10.5V38H12V36.5ZM36 36.5V38H37.5V36.5H36ZM40 40.5V42H41.5V40.5H40ZM8 40.5H6.5V42H8V40.5ZM17.5 16.5C17.5 12.9084 20.4084 10 24 10V7C18.7516 7 14.5 11.2516 14.5 16.5H17.5ZM24 23C20.4084 23 17.5 20.0916 17.5 16.5H14.5C14.5 21.7484 18.7516 26 24 26V23ZM30.5 16.5C30.5 20.0916 27.5916 23 24 23V26C29.2484 26 33.5 21.7484 33.5 16.5H30.5ZM24 10C27.5916 10 30.5 12.9084 30.5 16.5H33.5C33.5 11.2516 29.2484 7 24 7V10ZM24 14C25.3716 14 26.5 15.1284 26.5 16.5H29.5C29.5 13.4716 27.0284 11 24 11V14ZM21.5 16.5C21.5 15.1284 22.6284 14 24 14V11C20.9716 11 18.5 13.4716 18.5 16.5H21.5ZM24 19C22.6284 19 21.5 17.8716 21.5 16.5H18.5C18.5 19.5284 20.9716 22 24 22V19ZM26.5 16.5C26.5 17.8716 25.3716 19 24 19V22C27.0284 22 29.5 19.5284 29.5 16.5H26.5ZM24 32C26.4876 32 29.2129 32.6001 31.365 33.3781C32.439 33.7664 33.3219 34.1818 33.9329 34.5555C34.2403 34.7436 34.4431 34.8994 34.5605 35.0104C34.7059 35.1479 34.6152 35.1161 34.5562 34.9067L37.4438 34.0933C37.2848 33.5289 36.9129 33.1059 36.6215 32.8305C36.3022 32.5286 35.9128 32.2499 35.4983 31.9963C34.6656 31.487 33.586 30.9911 32.385 30.5569C29.9871 29.6899 26.9124 29 24 29V32ZM13.4453 34.9215C13.3883 35.1265 13.3007 35.1563 13.4445 35.019C13.5616 34.9073 13.7639 34.7506 14.0707 34.5617C14.6808 34.1862 15.5628 33.7695 16.6364 33.3801C18.7875 32.6001 21.5125 32 24 32V29C21.0875 29 18.0125 29.6899 15.6136 30.5599C14.4122 30.9955 13.3317 31.4938 12.498 32.007C12.083 32.2625 11.6931 32.5436 11.3735 32.8486C11.0806 33.1281 10.7117 33.5535 10.5547 34.1185L13.4453 34.9215ZM13.5 36.5V34.52H10.5V36.5H13.5ZM36 35H12V38H36V35ZM34.5 34.5V36.5H37.5V34.5H34.5ZM24 25C21.1425 25 16.9529 25.7052 13.4397 27.1126C11.6819 27.8167 9.99911 28.7336 8.73172 29.9033C7.45414 31.0825 6.5 32.6191 6.5 34.5H9.5C9.5 33.7209 9.87836 32.9275 10.7664 32.1079C11.6646 31.2789 12.9806 30.5283 14.5553 29.8974C17.7071 28.6348 21.5175 28 24 28V25ZM41.5 34.5C41.5 32.6191 40.5459 31.0825 39.2683 29.9033C38.0009 28.7336 36.3181 27.8167 34.5603 27.1126C31.0471 25.7052 26.8575 25 24 25V28C26.4825 28 30.2929 28.6348 33.4447 29.8974C35.0194 30.5283 36.3354 31.2789 37.2336 32.1079C38.1216 32.9275 38.5 33.7209 38.5 34.5H41.5ZM41.5 40.5V34.5H38.5V40.5H41.5ZM8 42H40V39H8V42ZM6.5 34.5V40.5H9.5V34.5H6.5Z" fill="#363645" mask="url(#path-1-inside-1)"/>
</svg>
