<svg width="24" height="24" viewBox="0 0 24 24" fill="none" xmlns="http://www.w3.org/2000/svg">
<path fill-rule="evenodd" clip-rule="evenodd" d="M15.59 10.09L13 12.67V3H11V12.67L8.41 10.09L7 11.5L12 16.5L17 11.5L15.59 10.09ZM19 19V12H21V19C21 20.1 20.1 21 19 21H5C3.9 21 3 20.1 3 19V12H5V19H19Z" fill="white"/>
<path d="M13 12.67H12.5V13.8738L13.3529 13.0242L13 12.67ZM15.59 10.09L15.9436 9.73645L15.5907 9.38358L15.2371 9.73576L15.59 10.09ZM13 3H13.5V2.5H13V3ZM11 3V2.5H10.5V3H11ZM11 12.67L10.6471 13.0242L11.5 13.8738V12.67H11ZM8.41 10.09L8.76287 9.73576L8.40932 9.38358L8.05645 9.73645L8.41 10.09ZM7 11.5L6.64645 11.1464L6.29289 11.5L6.64645 11.8536L7 11.5ZM12 16.5L11.6464 16.8536L12 17.2071L12.3536 16.8536L12 16.5ZM17 11.5L17.3536 11.8536L17.7071 11.5L17.3536 11.1464L17 11.5ZM19 12V11.5H18.5V12H19ZM19 19V19.5H19.5V19H19ZM21 12H21.5V11.5H21V12ZM3 12V11.5H2.5V12H3ZM5 12H5.5V11.5H5V12ZM5 19H4.5V19.5H5V19ZM13.3529 13.0242L15.9429 10.4442L15.2371 9.73576L12.6471 12.3158L13.3529 13.0242ZM12.5 3V12.67H13.5V3H12.5ZM11 3.5H13V2.5H11V3.5ZM11.5 12.67V3H10.5V12.67H11.5ZM8.05713 10.4442L10.6471 13.0242L11.3529 12.3158L8.76287 9.73576L8.05713 10.4442ZM7.35355 11.8536L8.76355 10.4436L8.05645 9.73645L6.64645 11.1464L7.35355 11.8536ZM12.3536 16.1464L7.35355 11.1464L6.64645 11.8536L11.6464 16.8536L12.3536 16.1464ZM16.6464 11.1464L11.6464 16.1464L12.3536 16.8536L17.3536 11.8536L16.6464 11.1464ZM15.2364 10.4436L16.6464 11.8536L17.3536 11.1464L15.9436 9.73645L15.2364 10.4436ZM18.5 12V19H19.5V12H18.5ZM21 11.5H19V12.5H21V11.5ZM21.5 19V12H20.5V19H21.5ZM19 21.5C20.3761 21.5 21.5 20.3761 21.5 19H20.5C20.5 19.8239 19.8239 20.5 19 20.5V21.5ZM5 21.5H19V20.5H5V21.5ZM2.5 19C2.5 20.3761 3.62386 21.5 5 21.5V20.5C4.17614 20.5 3.5 19.8239 3.5 19H2.5ZM2.5 12V19H3.5V12H2.5ZM5 11.5H3V12.5H5V11.5ZM5.5 19V12H4.5V19H5.5ZM19 18.5H5V19.5H19V18.5Z" fill="#4DB56D"/>
</svg>
