<svg width="16" height="17" viewBox="0 0 16 17" fill="none" xmlns="http://www.w3.org/2000/svg">
<path fill-rule="evenodd" clip-rule="evenodd" d="M8.21697 5.13965V8.41468L12.0238 12.2215C12.1124 12.3101 12.1124 12.4364 12.0238 12.525C11.9777 12.5711 11.9234 12.5914 11.8721 12.5914C11.8208 12.5914 11.7665 12.5711 11.7204 12.525L7.84712 8.65173C7.80099 8.6056 7.78072 8.55134 7.78072 8.5V5.13965C7.78072 5.01999 7.87919 4.92152 7.99885 4.92152C8.11851 4.92152 8.21697 5.01999 8.21697 5.13965ZM8.21697 2.66359C8.21697 2.78325 8.11851 2.88172 7.99885 2.88172C7.87919 2.88172 7.78072 2.78325 7.78072 2.66359V2.48673C7.78072 2.36707 7.87919 2.2686 7.99885 2.2686C8.11851 2.2686 8.21697 2.36707 8.21697 2.48673V2.66359ZM7.78072 14.3364C7.78072 14.2167 7.87919 14.1183 7.99885 14.1183C8.11851 14.1183 8.21697 14.2167 8.21697 14.3364V14.5133C8.21697 14.6329 8.11851 14.7314 7.99885 14.7314C7.87919 14.7314 7.78072 14.6329 7.78072 14.5133V14.3364ZM1.9872 8.28187H2.16406C2.28372 8.28187 2.38218 8.38033 2.38218 8.49999C2.38218 8.61965 2.28372 8.71812 2.16406 8.71812H1.9872C1.86753 8.71812 1.76907 8.61965 1.76907 8.49999C1.76907 8.38033 1.86753 8.28187 1.9872 8.28187ZM13.8357 8.28187H14.0126C14.1322 8.28187 14.2307 8.38033 14.2307 8.49999C14.2307 8.61965 14.1322 8.71812 14.0126 8.71812H13.8357C13.716 8.71812 13.6176 8.61965 13.6176 8.49999C13.6176 8.38033 13.716 8.28187 13.8357 8.28187ZM3.60454 4.10362C3.69307 4.01508 3.81945 4.01508 3.90799 4.10362L4.03179 4.22742C4.12033 4.31595 4.12033 4.44233 4.03179 4.53087C3.98566 4.577 3.9314 4.59727 3.88007 4.59727C3.82873 4.59727 3.77447 4.577 3.72834 4.53087L3.60454 4.40707C3.516 4.31853 3.516 4.19215 3.60454 4.10362ZM3.60454 12.5929L3.72834 12.4691C3.81687 12.3806 3.94325 12.3806 4.03179 12.4691C4.12033 12.5577 4.12033 12.684 4.03179 12.7726L3.90799 12.8964C3.86186 12.9425 3.8076 12.9628 3.75626 12.9628C3.70492 12.9628 3.65066 12.9425 3.60454 12.8964C3.516 12.8078 3.516 12.6815 3.60454 12.5929ZM11.9705 4.22742L12.0943 4.10362C12.1829 4.01508 12.3092 4.01508 12.3978 4.10362C12.4863 4.19215 12.4863 4.31853 12.3978 4.40707L12.274 4.53087C12.2279 4.577 12.1736 4.59727 12.1223 4.59727C12.0709 4.59727 12.0167 4.577 11.9705 4.53087C11.882 4.44233 11.882 4.31595 11.9705 4.22742ZM0 8.5C0 4.08262 3.58262 0.5 8 0.5C12.4174 0.5 16 4.08262 16 8.5C16 12.9174 12.4174 16.5 8 16.5C3.58262 16.5 0 12.9174 0 8.5ZM0.436256 8.5C0.436256 12.6781 3.82194 16.0637 8 16.0637C12.1781 16.0637 15.5637 12.6781 15.5637 8.5C15.5637 4.32194 12.1781 0.936256 8 0.936256C3.82194 0.936256 0.436256 4.32194 0.436256 8.5Z" fill="#353647" fill-opacity="0.5"/>
</svg>
