<svg width="15" height="12" viewBox="0 0 15 12" fill="none" xmlns="http://www.w3.org/2000/svg">
<path d="M1.0445 5.7567L4.12837 6.92884L5.32202 10.8381C5.39839 11.0885 5.69904 11.181 5.89859 11.0149L7.61759 9.58778C7.79778 9.43826 8.05443 9.43081 8.24274 9.57002L11.3432 11.8624C11.5567 12.0204 11.8591 11.9013 11.9126 11.6386L14.1839 0.512736C14.2423 0.225788 13.9655 -0.0135916 13.6972 0.0920827L1.04089 5.06418C0.728557 5.18685 0.731278 5.63717 1.0445 5.7567ZM5.12965 6.30488L11.1567 2.52464C11.265 2.4569 11.3764 2.60605 11.2834 2.69392L6.30938 7.40247C6.13454 7.5682 6.02176 7.79 5.98982 8.03074L5.82038 9.30947C5.79794 9.4802 5.56243 9.49714 5.51617 9.33191L4.86452 7.00012C4.78988 6.73416 4.89865 6.45008 5.12965 6.30488Z" fill="white"/>
</svg>
